<svg xmlns="http://www.w3.org/2000/svg" width="13.315" height="13.315" viewBox="0 0 13.315 13.315">
  <path id="info_FILL0_wght400_GRAD0_opsz24" d="M85.992-870.013h1.332v-3.995H85.992Zm.666-5.326a.644.644,0,0,0,.474-.192.644.644,0,0,0,.191-.474.644.644,0,0,0-.191-.474.644.644,0,0,0-.474-.191.644.644,0,0,0-.474.191.644.644,0,0,0-.191.474.644.644,0,0,0,.191.474A.644.644,0,0,0,86.658-875.339Zm0,8.655a6.482,6.482,0,0,1-2.6-.524,6.723,6.723,0,0,1-2.114-1.423,6.725,6.725,0,0,1-1.423-2.114,6.483,6.483,0,0,1-.524-2.6,6.483,6.483,0,0,1,.524-2.6,6.724,6.724,0,0,1,1.423-2.114,6.724,6.724,0,0,1,2.114-1.423,6.484,6.484,0,0,1,2.6-.524,6.484,6.484,0,0,1,2.6.524,6.724,6.724,0,0,1,2.114,1.423,6.723,6.723,0,0,1,1.423,2.114,6.483,6.483,0,0,1,.524,2.6,6.483,6.483,0,0,1-.524,2.6,6.725,6.725,0,0,1-1.423,2.114,6.723,6.723,0,0,1-2.114,1.423A6.482,6.482,0,0,1,86.658-866.685Zm0-1.331a5.14,5.14,0,0,0,3.778-1.548,5.141,5.141,0,0,0,1.548-3.778,5.14,5.14,0,0,0-1.548-3.778,5.14,5.14,0,0,0-3.778-1.548,5.14,5.14,0,0,0-3.778,1.548,5.14,5.14,0,0,0-1.548,3.778,5.141,5.141,0,0,0,1.548,3.778A5.14,5.14,0,0,0,86.658-868.016ZM86.658-873.342Z" transform="translate(-80 880)" fill="#4a4a4a"/>
</svg>
